<?xml version="1.0" encoding="UTF-8"?>
<!DOCTYPE svg PUBLIC "-//W3C//DTD SVG 1.1//EN" "http://www.w3.org/Graphics/SVG/1.1/DTD/svg11.dtd">
<svg version="1.2" width="108.32mm" height="223.76mm" viewBox="6868 3600 10832 22376" preserveAspectRatio="xMidYMid" fill-rule="evenodd" stroke-width="28.222" stroke-linejoin="round" xmlns="http://www.w3.org/2000/svg" xmlns:ooo="http://xml.openoffice.org/svg/export" xmlns:xlink="http://www.w3.org/1999/xlink" xmlns:presentation="http://sun.com/xmlns/staroffice/presentation" xmlns:smil="http://www.w3.org/2001/SMIL20/" xmlns:anim="urn:oasis:names:tc:opendocument:xmlns:animation:1.0" xml:space="preserve">
 <defs class="ClipPathGroup">
  <clipPath id="presentation_clip_path" clipPathUnits="userSpaceOnUse">
   <rect x="6868" y="3600" width="10832" height="22376"/>
  </clipPath>
 </defs>
 <defs class="TextShapeIndex">
  <g ooo:slide="id1" ooo:id-list="id3 id4 id5 id6"/>
 </defs>
 <defs class="EmbeddedBulletChars">
  <g id="bullet-char-template(57356)" transform="scale(0.00048828125,-0.00048828125)">
   <path d="M 580,1141 L 1163,571 580,0 -4,571 580,1141 Z"/>
  </g>
  <g id="bullet-char-template(57354)" transform="scale(0.00048828125,-0.00048828125)">
   <path d="M 8,1128 L 1137,1128 1137,0 8,0 8,1128 Z"/>
  </g>
  <g id="bullet-char-template(10146)" transform="scale(0.00048828125,-0.00048828125)">
   <path d="M 174,0 L 602,739 174,1481 1456,739 174,0 Z M 1358,739 L 309,1346 659,739 1358,739 Z"/>
  </g>
  <g id="bullet-char-template(10132)" transform="scale(0.00048828125,-0.00048828125)">
   <path d="M 2015,739 L 1276,0 717,0 1260,543 174,543 174,936 1260,936 717,1481 1274,1481 2015,739 Z"/>
  </g>
  <g id="bullet-char-template(10007)" transform="scale(0.00048828125,-0.00048828125)">
   <path d="M 0,-2 C -7,14 -16,27 -25,37 L 356,567 C 262,823 215,952 215,954 215,979 228,992 255,992 264,992 276,990 289,987 310,991 331,999 354,1012 L 381,999 492,748 772,1049 836,1024 860,1049 C 881,1039 901,1025 922,1006 886,937 835,863 770,784 769,783 710,716 594,584 L 774,223 C 774,196 753,168 711,139 L 727,119 C 717,90 699,76 672,76 641,76 570,178 457,381 L 164,-76 C 142,-110 111,-127 72,-127 30,-127 9,-110 8,-76 1,-67 -2,-52 -2,-32 -2,-23 -1,-13 0,-2 Z"/>
  </g>
  <g id="bullet-char-template(10004)" transform="scale(0.00048828125,-0.00048828125)">
   <path d="M 285,-33 C 182,-33 111,30 74,156 52,228 41,333 41,471 41,549 55,616 82,672 116,743 169,778 240,778 293,778 328,747 346,684 L 369,508 C 377,444 397,411 428,410 L 1163,1116 C 1174,1127 1196,1133 1229,1133 1271,1133 1292,1118 1292,1087 L 1292,965 C 1292,929 1282,901 1262,881 L 442,47 C 390,-6 338,-33 285,-33 Z"/>
  </g>
  <g id="bullet-char-template(9679)" transform="scale(0.00048828125,-0.00048828125)">
   <path d="M 813,0 C 632,0 489,54 383,161 276,268 223,411 223,592 223,773 276,916 383,1023 489,1130 632,1184 813,1184 992,1184 1136,1130 1245,1023 1353,916 1407,772 1407,592 1407,412 1353,268 1245,161 1136,54 992,0 813,0 Z"/>
  </g>
  <g id="bullet-char-template(8226)" transform="scale(0.00048828125,-0.00048828125)">
   <path d="M 346,457 C 273,457 209,483 155,535 101,586 74,649 74,723 74,796 101,859 155,911 209,963 273,989 346,989 419,989 480,963 531,910 582,859 608,796 608,723 608,648 583,586 532,535 482,483 420,457 346,457 Z"/>
  </g>
  <g id="bullet-char-template(8211)" transform="scale(0.00048828125,-0.00048828125)">
   <path d="M -4,459 L 1135,459 1135,606 -4,606 -4,459 Z"/>
  </g>
 </defs>
 <defs class="TextEmbeddedBitmaps"/>
 <g class="SlideGroup">
  <g>
   <g id="id1" class="Slide" clip-path="url(#presentation_clip_path)">
    <g class="Page">
     <g class="Group">
      <g class="com.sun.star.drawing.ClosedBezierShape">
       <g id="id3">
        <rect class="BoundingBox" stroke="none" fill="none" x="6868" y="3600" width="10833" height="22377"/>
        <g>
         <defs>
          <linearGradient id="gradient1" x1="6085" y1="4052" x2="18483" y2="25524" gradientUnits="userSpaceOnUse">
           <stop offset="0" style="stop-color:rgb(102,102,255)"/>
           <stop offset="1" style="stop-color:rgb(102,255,255)"/>
          </linearGradient>
         </defs>
         <path style="fill:url(#gradient1)" d="M 11659,18296 L 11659,13978 11655,13739 11643,13521 11624,13323 11597,13145 11580,13063 11560,12986 11537,12913 11512,12844 11484,12779 11454,12718 11421,12661 11385,12608 11347,12559 11306,12513 11262,12471 11215,12433 11165,12398 11112,12368 11057,12341 10998,12319 10937,12299 10872,12282 10804,12267 10732,12255 10658,12246 10580,12239 10498,12235 10413,12234 10325,12236 10238,12243 10154,12254 10072,12269 9992,12288 9914,12312 9839,12341 9765,12373 9694,12411 9626,12453 9560,12498 9497,12547 9437,12601 9380,12658 9325,12719 9272,12783 9223,12852 9176,12925 9132,13002 9091,13083 9053,13167 9018,13256 8986,13348 8958,13444 8931,13544 8909,13648 8890,13756 8874,13868 8862,13983 8854,14101 8847,14349 8847,18296 7722,18296 7722,12923 7717,12471 7709,12022 7696,11661 7690,11547 7688,11530 7687,11518 7686,11514 7685,11511 7685,11510 7684,11510 7684,11509 7684,11509 7684,11509 7683,11509 7719,6954 6868,6954 6868,6128 7719,6128 7719,5047 7726,4882 7744,4725 7775,4578 7795,4508 7818,4440 7844,4375 7874,4311 7906,4251 7941,4192 7980,4136 8022,4082 8066,4031 8114,3982 8165,3935 8218,3892 8273,3852 8331,3814 8392,3780 8454,3749 8520,3720 8587,3695 8730,3653 8882,3624 9044,3606 9216,3600 9356,3604 9498,3615 9642,3635 9788,3662 9788,4500 9435,4500 9350,4503 9270,4510 9195,4523 9126,4540 9063,4562 9005,4590 8952,4622 8905,4660 8864,4702 8828,4749 8797,4802 8772,4859 8753,4922 8739,4990 8731,5062 8728,5140 8728,6128 9788,6128 9788,6954 8728,6954 8754,11509 8756,11531 8759,11566 8762,11613 8764,11674 8782,11986 8798,12342 8803,12649 8821,12649 8898,12504 8979,12367 9063,12236 9149,12113 9194,12054 9241,11998 9290,11944 9340,11892 9393,11842 9447,11795 9503,11750 9561,11708 9621,11667 9684,11629 9748,11593 9815,11559 9884,11528 9955,11500 10028,11473 10103,11450 10180,11428 10261,11409 10344,11393 10431,11380 10521,11370 10615,11363 10810,11357 10998,11362 11176,11376 11345,11400 11502,11434 11650,11478 11788,11531 11915,11594 12033,11666 12088,11707 12141,11749 12192,11795 12241,11844 12332,11949 12415,12066 12489,12194 12554,12334 12611,12486 12659,12649 12677,12649 12755,12504 12838,12367 12926,12236 13018,12113 13066,12054 13117,11998 13169,11944 13223,11892 13279,11842 13337,11795 13397,11750 13459,11708 13523,11667 13589,11629 13656,11593 13726,11559 13798,11528 13871,11500 13947,11473 14024,11450 14104,11428 14187,11409 14272,11393 14360,11380 14451,11370 14545,11363 14741,11357 14868,11359 14990,11366 15108,11377 15221,11392 15330,11411 15435,11435 15535,11464 15631,11496 15723,11533 15810,11575 15893,11622 15972,11673 16047,11728 16117,11789 16183,11854 16245,11924 16303,12000 16357,12080 16407,12165 16453,12256 16495,12351 16533,12452 16568,12558 16599,12670 16625,12787 16647,12909 16666,13036 16682,13169 16703,13452 16709,13756 16655,18296 16655,19325 17700,19325 17700,20153 16655,20153 16655,24518 16657,24599 16662,24673 16671,24740 16683,24800 16699,24854 16708,24878 16718,24900 16730,24921 16742,24940 16755,24957 16769,24972 16784,24986 16801,24999 16820,25012 16840,25023 16862,25033 16886,25043 16938,25059 16997,25072 17063,25081 17134,25086 17212,25088 17358,25085 17487,25076 17546,25069 17601,25061 17653,25051 17700,25039 17700,25891 17470,25928 17256,25954 17057,25970 16872,25976 16727,25972 16591,25959 16464,25939 16346,25910 16237,25873 16136,25829 16089,25803 16044,25776 16002,25747 15961,25715 15923,25681 15887,25646 15854,25609 15823,25570 15794,25529 15768,25487 15744,25443 15723,25397 15705,25350 15689,25300 15675,25249 15664,25196 15649,25085 15644,24967 15644,20153 14780,20153 14780,19325 15644,19325 15644,18296 15590,13978 15586,13739 15574,13521 15555,13323 15528,13145 15511,13063 15492,12986 15469,12913 15444,12844 15417,12779 15386,12718 15353,12661 15316,12608 15278,12559 15237,12513 15193,12471 15146,12433 15096,12398 15044,12368 14988,12341 14929,12319 14869,12299 14804,12282 14736,12267 14665,12255 14590,12246 14512,12239 14431,12235 14346,12234 14258,12236 14171,12242 14086,12253 14004,12267 13924,12286 13846,12309 13770,12336 13696,12368 13626,12404 13558,12444 13493,12488 13430,12536 13369,12588 13312,12644 13256,12704 13204,12768 13154,12836 13107,12908 13063,12985 13022,13065 12984,13150 12949,13239 12918,13332 12889,13428 12863,13530 12840,13635 12821,13745 12805,13858 12793,13975 12785,14096 12778,14349 12778,18296 11659,18296 Z"/>
        </g>
       </g>
      </g>
      <g class="Group">
       <g class="com.sun.star.drawing.PolyPolygonShape">
        <g id="id4">
         <rect class="BoundingBox" stroke="none" fill="none" x="7665" y="19046" width="2239" height="2324"/>
         <path fill="rgb(0,0,0)" stroke="none" d="M 9902,20198 L 9901,20263 9897,20327 9891,20389 9883,20450 9872,20510 9859,20567 9844,20624 9826,20678 9806,20731 9784,20783 9759,20832 9733,20879 9704,20924 9674,20967 9641,21009 9606,21048 9569,21086 9530,21121 9489,21154 9446,21184 9401,21213 9354,21239 9305,21263 9254,21285 9201,21305 9147,21322 9090,21336 9032,21348 8972,21357 8911,21363 8847,21367 8782,21368 8714,21367 8647,21363 8583,21356 8521,21347 8461,21334 8403,21319 8348,21302 8294,21281 8243,21258 8194,21233 8147,21206 8102,21177 8060,21145 8020,21112 7981,21076 7946,21038 7912,20998 7880,20956 7851,20913 7824,20867 7799,20820 7776,20771 7755,20720 7736,20667 7720,20613 7705,20557 7693,20501 7683,20443 7676,20383 7670,20323 7667,20261 7666,20198 7667,20133 7670,20069 7676,20007 7684,19947 7694,19888 7707,19831 7722,19775 7739,19721 7759,19669 7780,19618 7804,19570 7830,19524 7858,19479 7888,19437 7921,19397 7955,19358 7992,19322 8031,19288 8071,19256 8114,19226 8159,19198 8206,19172 8255,19149 8306,19128 8359,19109 8415,19092 8472,19078 8530,19067 8591,19058 8654,19052 8719,19048 8785,19047 8852,19048 8916,19052 8979,19058 9039,19067 9098,19079 9155,19093 9210,19109 9263,19128 9314,19150 9363,19174 9410,19199 9455,19227 9498,19257 9538,19290 9577,19324 9613,19361 9648,19399 9680,19440 9710,19482 9738,19527 9764,19573 9787,19621 9809,19672 9828,19724 9846,19778 9861,19834 9873,19891 9884,19949 9892,20009 9897,20071 9901,20134 9902,20198 Z M 9590,20198 L 9589,20148 9587,20099 9583,20051 9577,20004 9570,19958 9561,19914 9550,19870 9538,19828 9524,19787 9509,19748 9492,19710 9474,19674 9454,19639 9432,19605 9409,19574 9385,19543 9358,19514 9331,19487 9301,19462 9271,19438 9238,19416 9205,19396 9169,19377 9133,19361 9094,19346 9054,19333 9013,19322 8971,19313 8926,19306 8881,19301 8834,19298 8785,19297 8736,19298 8688,19301 8641,19306 8596,19313 8553,19322 8511,19333 8471,19346 8432,19361 8395,19377 8359,19396 8325,19416 8293,19438 8262,19462 8232,19487 8205,19514 8178,19543 8154,19574 8131,19605 8109,19639 8090,19674 8071,19710 8055,19748 8040,19787 8026,19828 8015,19870 8004,19914 7996,19958 7989,20004 7983,20051 7979,20099 7977,20148 7976,20198 7977,20248 7979,20298 7983,20346 7989,20393 7996,20439 8005,20484 8016,20528 8028,20570 8042,20612 8057,20652 8074,20690 8092,20728 8112,20763 8134,20798 8157,20830 8182,20862 8208,20891 8235,20920 8265,20946 8296,20971 8328,20994 8362,21015 8397,21034 8434,21052 8473,21068 8513,21082 8554,21094 8597,21103 8641,21111 8687,21116 8734,21119 8782,21120 8834,21119 8884,21116 8932,21111 8979,21103 9023,21093 9066,21082 9107,21068 9146,21051 9183,21033 9219,21014 9253,20992 9285,20969 9316,20944 9345,20918 9372,20890 9397,20860 9421,20829 9443,20796 9464,20762 9483,20726 9500,20689 9516,20650 9530,20610 9543,20568 9554,20525 9564,20481 9572,20436 9578,20391 9583,20344 9587,20296 9590,20198 Z"/>
        </g>
       </g>
       <g class="com.sun.star.drawing.PolyPolygonShape">
        <g id="id5">
         <rect class="BoundingBox" stroke="none" fill="none" x="10322" y="19081" width="1832" height="2258"/>
         <path fill="rgb(0,0,0)" stroke="none" d="M 11785,21337 L 10579,19416 10587,19572 10592,19710 10595,19839 10595,21337 10323,21337 10323,19082 10678,19082 11897,21016 11887,20859 11881,20712 11878,20561 11878,19082 12153,19082 12153,21337 11785,21337 Z"/>
        </g>
       </g>
       <g class="com.sun.star.drawing.PolyPolygonShape">
        <g id="id6">
         <rect class="BoundingBox" stroke="none" fill="none" x="12693" y="19080" width="1778" height="2259"/>
         <path fill="rgb(0,0,0)" stroke="none" d="M 12693,21337 L 12693,19081 14403,19081 14403,19331 12999,19331 12999,20055 14307,20055 14307,20302 12999,20302 12999,21088 14469,21088 14469,21337 12693,21337 Z"/>
        </g>
       </g>
      </g>
     </g>
    </g>
   </g>
  </g>
 </g>
</svg>
